<svg xmlns="http://www.w3.org/2000/svg" viewBox="0 0 32 40" x="0px" y="0px"><title>Artboard 15</title><g data-name="Layer 3"><path d="M24.45,30a1,1,0,0,1-.47-.12l-8-4.19L8,29.88a1,1,0,0,1-1.45-1.05l1.52-8.89L1.63,13.65a1,1,0,0,1,.56-1.71l8.92-1.3,4-8.08a1,1,0,0,1,1.8,0l4,8.08,8.92,1.3a1,1,0,0,1,.56,1.71l-6.46,6.29,1.52,8.89a1,1,0,0,1-.39,1A1,1,0,0,1,24.45,30ZM16,23.56a1,1,0,0,1,.46.11l6.66,3.5-1.27-7.41a1,1,0,0,1,.29-.88l5.38-5.25-7.44-1.08a1,1,0,0,1-.75-.55L16,5.26,12.67,12a1,1,0,0,1-.75.55L4.48,13.63l5.38,5.25a1,1,0,0,1,.29.88L8.88,27.17l6.66-3.5A1,1,0,0,1,16,23.56Z"/></g><text x="0" y="47" fill="#000000" font-size="5px" font-weight="bold" font-family="'Helvetica Neue', Helvetica, Arial-Unicode, Arial, Sans-serif">Created by Achmmad Fauzi</text><text x="0" y="52" fill="#000000" font-size="5px" font-weight="bold" font-family="'Helvetica Neue', Helvetica, Arial-Unicode, Arial, Sans-serif">from the Noun Project</text></svg>